{"title":"Another Woman 1988 DVDrip English Klam","uid":5832176,"size":895724254,"categoryP":"video","categoryS":"movies","magnet":"?xt=urn:btih:1737ee89a27720003ae74c080c0cfd02b19f82e6&amp;dn=Another+Woman+1988+DVDrip+English+Klam&amp;tr=udp%3A%2F%2Ftracker.openbittorrent.com%3A80&amp;tr=udp%3A%2F%2Fopen.demonii.com%3A1337&amp;tr=udp%3A%2F%2Ftracker.coppersurfer.tk%3A6969&amp;tr=udp%3A%2F%2Fexodus.desync.com%3A6969","seeders":5,"leechers":1,"uploader":"Klambake","files":-1,"time":1284559795,"description":"\n\nWith: Gena Rowlands, Mia Farrow en Ian Holm\n\nMarion is a woman who has learned to shield herself from her emotions. She rents an apartment to work undisturbed on her new book, but by some acoustic anomaly she can hear all that is said in the next apartment in which a psychiatrist holds his office. When she hears a young woman tell that she finds it harder and harder to bear her life, Marion starts to reflect on her own life. After a series of events she comes to understand how her unemotional attitude towards the people around her affected them and herself. \n &lt;a href=&quot;\nhttp://www.imdb.com/title/&quot; rel=&quot;nofollow&quot; target=&quot;_NEW&quot;&gt;\nhttp://www.imdb.com/title/&lt;/a&gt;\thttp://bayimg.com/\n\nGeneral:\n\nComplete name                    : Another Woman\\Another Woman.avi\nFormat                           : AVI\nFormat/Info                      : Audio Video Interleave\nFile size                        : 854 MiB\nDuration                         : 1h 17mn\nOverall bit rate                 : 1 539 Kbps\n\nVideo:\n\nFormat                           : MPEG-4 Visual\nFormat profile                   : Simple@L3\nFormat settings, BVOP            : No\nFormat settings, QPel            : No\nFormat settings, GMC             : No warppoints\nFormat settings, Matrix          : Default (H.263)\nCodec ID                         : XVID\nCodec ID/Hint                    : XviD\nDuration                         : 1h 17mn\nBit rate                         : 1 336 Kbps\nWidth                            : 720 pixels\nHeight                           : 400 pixels\nDisplay aspect ratio             : 16:9\nFrame rate                       : 25.000 fps\nColor space                      : YUV\nChroma subsampling               : 4:2:0\nBit depth                        : 8 bits\nScan type                        : Progressive\nBits/(Pixel*Frame)               : 0.186\nStream size                      : 741 MiB (87%)\nWriting library                  : XviD 1.1.2 (UTC 2006-11-01)\n\nAudio:\n\nFormat                           : AC-3\nFormat/Info                      : Audio Coding 3\nMode extension                   : CM (complete main)\nCodec ID                         : 2000\nDuration                         : 1h 17mn\nBit rate mode                    : Constant\nBit rate                         : 192 Kbps\nChannel(s)                       : 2 channels\nChannel positions                : Front: L R\nSampling rate                    : 48.0 KHz\nStream size                      : 106 MiB (12%)\nAlignment                        : Aligned on interleaves\nInterleave, duration             : 32 ms (0.80 video frame)\nInterleave, preload duration     : 320 ms","torrent":{"xt":"urn:btih:1737ee89a27720003ae74c080c0cfd02b19f82e6","amp;dn":"Another+Woman+1988+DVDrip+English+Klam","amp;tr":["udp%3A%2F%2Ftracker.openbittorrent.com%3A80","udp%3A%2F%2Fopen.demonii.com%3A1337","udp%3A%2F%2Ftracker.coppersurfer.tk%3A6969","udp%3A%2F%2Fexodus.desync.com%3A6969"],"infoHash":"1737ee89a27720003ae74c080c0cfd02b19f82e6","infoHashBuffer":{"type":"Buffer","data":[23,55,238,137,162,119,32,0,58,231,76,8,12,12,253,2,177,159,130,230]},"announce":[],"urlList":[]}}